<svg xmlns="http://www.w3.org/2000/svg" viewBox="0 0 433.53 509.23"><defs><style>.cls-1,.cls-2{fill:#fff;stroke:#fff;stroke-miterlimit:10;}.cls-1{stroke-width:40.61px;}.cls-2{stroke-width:2.9px;}</style></defs><title>white</title><g id="Layer_2" data-name="Layer 2"><g id="Layer_1-2" data-name="Layer 1"><path class="cls-1" d="M413.22,100.56A37.75,37.75,0,0,1,353.1,131c-.7-.55-1.42-1.1-2.12-1.68A158.17,158.17,0,1,0,241.75,411.75v74.88c-123.33-6.2-221.45-108.12-221.45-233C20.3,124.75,124.78,20.3,253.64,20.3A232.37,232.37,0,0,1,397.27,69.73c1.16.9,2.29,1.82,3.45,2.78l.12.09A37.68,37.68,0,0,1,413.22,100.56Z"/><circle class="cls-2" cx="370.12" cy="450.14" r="57.65"/></g></g></svg>